PathFileType	4	(X/Y/Z)	C:/Users/beibeiliu/ov580/test_trc/capture2\sequence.25_training_dense_right.trc
DataRate	CameraRate	NumFrames	NumMarkers	Units	OrigDataRate	OrigDataStartFrame	OrigNumFrames
120	120	24	19	mm	120	215	343
Frame#	Time	ThumbCMC			ThumbMCP			ThumbIP			ThumbTip			IndexMCP			IndexPIP			IndexTip			MiddleMCP			MiddlePIP			MiddleTip			RingMCP			RingPIP			RingTip			PinkyMCP			PinkyPIP			PinkyTip			BackHand1			BackHand2			BackHand3	
		X0	Y0	Z0	X1	Y1	Z1	X2	Y2	Z2	X3	Y3	Z3	X4	Y4	Z4	X5	Y5	Z5	X6	Y6	Z6	X7	Y7	Z7	X8	Y8	Z8	X9	Y9	Z9	X10	Y10	Z10	X11	Y11	Z11	X12	Y12	Z12	X13	Y13	Z13	X14	Y14	Z14	X15	Y15	Z15	X16	Y16	Z16	X17	Y17	Z17	X18	Y18	Z18	
214	1.78333	90.6629	14.023	22.5873	87.5801	4.24699	-3.44847	80.3475	3.45362	-34.286	82.3146	2.9842	-55.6782	103.451	21.9097	-49.3923	112.564	-6.37499	-52.9693	112.545	-11.9187	-18.8782	125.534	19.4395	-48.0716	132.325	-10.4062	-41.7107	121.057	-6.06382	-4.5089	143.271	19.711	-46.0391	142.823	-9.57228	-33.963	133.094	-0.0989732	-3.82317	168.786	39.9598	-35.4387	175.104	35.0424	-57.2342	184.658	35.8524	-77.4742	142.811	54.9743	2.01849	142.176	52.6107	33.7767	111.049	47.1701	18.7831	
215	1.79167	92.7519	15.8075	19.4264	88.2751	5.87164	-8.53562	84.7133	3.67726	-33.3097	85.896	3.24931	-57.5058	110.736	21.2124	-51.4366	116.286	-8.96068	-52.145	116.597	-11.2791	-18.8265	128.81	17.1047	-48.9654	133.829	-11.453	-40.9662	125.5	-5.25183	-2.65086	151.186	19.5124	-43.7851	144.008	-9.49561	-32.392	133.721	-0.588324	-5.28099	171.035	39.7709	-35.4021	181.992	34.3763	-51.4202	191.277	36.2858	-70.8123	142.592	54.2026	4.39221	140.666	51.6116	34.3169	108.887	49.2541	15.0269	
216	1.8	91.1338	16.185	17.9347	90.1243	4.75133	-8.04457	89.3769	2.79571	-36.5955	90.2937	1.74189	-60.3458	111.729	20.1257	-51.1653	119.379	-9.52548	-51.5226	120.131	-10.9513	-16.926	132.13	18.7657	-46.6508	135.921	-14.1218	-35.3362	122.385	-7.66185	-3.94984	151.367	16.6303	-44.5381	149.303	-10.1824	-32.5056	133.562	2.34639	-3.16043	174.725	36.1106	-33.228	183.382	29.76	-52.9107	200.717	30.6314	-71.1106	143.64	54.4561	0.969865	143.621	52.9234	31.7299	113.596	47.7036	16.5975	
217	1.80833	92.8511	16.9846	18.1006	87.2969	3.77428	-7.94178	87.3507	0.446919	-38.3413	94.3422	-2.2847	-57.0793	112.134	17.5584	-52.2433	118.348	-13.6816	-49.5499	118.415	-11.0939	-14.6867	137.739	12.0447	-47.0473	137.738	-16.412	-34.2732	124.525	-5.44549	0.123633	154.284	12.948	-42.9263	150.869	-13.6682	-27.5578	133.981	-0.593659	-1.83302	178.624	32.6346	-30.8257	188.94	25.6447	-47.434	200.911	27.2838	-66.2471	147.818	50.5497	3.51226	144.418	52.5586	30.6295	114.581	48.0294	12.802	
218	1.81667	93.1681	19.0532	17.2399	88.8512	3.83181	-10.0297	88.0566	-1.79801	-38.8438	92.5285	-6.02212	-58.9564	115.164	14.2269	-51.42	118.84	-16.4422	-46.3732	119.195	-10.3076	-11.5479	136.928	9.9946	-46.7836	137.394	-20.3763	-31.5411	123.75	-7.41517	1.71323	155.874	7.57909	-40.6612	152.412	-17.8135	-26.647	135.537	-3.23383	0.399961	178.094	29.0684	-29.4043	192.874	21.0155	-41.3246	206.354	18.306	-65.4465	148.205	51.3682	4.1175	141.937	52.3499	32.0961	117.927	49.3521	11.0138	
219	1.825	94.227	18.6686	18.1448	85.9318	2.2584	-8.58695	87.8758	-3.77543	-37.2718	93.0308	-10.341	-56.9875	119.532	11.4474	-48.6016	120.45	-19.5814	-42.0947	117.64	-13.4556	-11.0383	139.232	4.10816	-45.6485	135.352	-23.4172	-31.3847	121.727	-11.5373	1.13727	158.215	1.08691	-37.0615	146.752	-21.9349	-22.4828	131.662	-5.10676	3.5035	181.209	20.8169	-29.596	191.065	11.9188	-40.1706	208.505	7.87543	-57.5658	151.907	45.4079	3.4222	143.613	48.1835	31.9871	116.62	46.2805	13.2229	
220	1.83333	90.1435	21.6461	17.5023	87.2532	3.57398	-8.79015	84.8664	-6.59032	-34.128	92.2777	-13.4588	-57.0355	114.409	6.00547	-50.0022	112.584	-23.369	-39.5516	109.659	-13.1088	-8.152	139.057	-1.80685	-43.5768	126.644	-28.0921	-27.0474	120.609	-11.7478	3.57374	154.172	-1.4789	-34.0452	142.6	-27.7341	-17.4865	128.439	-7.81055	5.80128	179.63	10.2053	-26.36	195.117	-1.4824	-38.8219	205.969	-4.22582	-54.7275	155.502	39.9184	3.69624	144.837	44.3358	34.6821	120.59	45.048	7.41275	
221	1.84167	90.8796	23.0981	16.4704	81.8226	3.94333	-5.22881	82.5718	-5.83391	-29.1758	88.6101	-15.5801	-54.0186	115.469	3.04365	-48.4823	110.637	-24.072	-40.1212	104.709	-14.1694	-7.41499	135.997	-4.44283	-40.2861	118.723	-30.0202	-25.1134	113.97	-11.7426	4.38871	151.468	-8.87405	-30.3861	134.703	-31.8699	-13.0532	122.621	-10.6466	7.21918	181.193	-0.207937	-20.0604	186.808	-12.531	-34.3963	204.699	-21.4704	-46.8931	155.102	36.7286	5.49105	145.617	41.9937	34.4087	122.819	46.169	10.5881	
222	1.85	91.9404	25.3637	15.34	82.7231	8.10514	-2.88612	78.7176	-3.42636	-32.5291	81.7833	-14.5544	-50.1122	112.403	0.494593	-47.1048	104.951	-25.8497	-35.7201	101.453	-13.7948	-7.31403	131.284	-7.69135	-39.5065	112.817	-32.0899	-23.2775	107.499	-12.4802	4.45276	144.682	-18.1601	-30.9538	128.307	-35.0391	-12.8874	120.18	-9.60419	10.2988	178.642	-12.0808	-21.5156	184.289	-26.8453	-34.1024	194.948	-36.2214	-46.9957	158.747	29.4184	5.0509	149.889	37.1257	30.9299	123.75	43.1788	6.88197	
223	1.85833	95.2221	26.9154	16.576	81.6394	10.6392	-7.37977	78.316	-0.185249	-26.6306	79.7477	-14.2056	-53.5289	109.724	0.511828	-45.9688	95.138	-24.8269	-37.0945	99.7162	-8.80055	-5.45609	125.574	-14.6009	-39.2386	108.225	-33.1977	-18.9229	105.559	-11.0267	5.38096	141.269	-25.6147	-29.9718	119.484	-36.3588	-11.9444	116.793	-10.5071	11.0231	171.022	-16.4732	-16.9302	177.303	-37.5839	-33.3404	186.756	-57.638	-45.1422	156.818	25.3622	3.56678	152.388	35.3449	30.1482	127.536	43.6187	9.14785	
224	1.86667	94.0551	31.9778	16.0191	83.4117	13.8965	-6.70312	77.5782	3.03369	-28.3595	75.5536	-9.6295	-49.8547	108.71	-1.96107	-45.4064	92.7659	-23.2279	-34.1726	95.5709	-4.54324	-4.8926	122.577	-15.489	-38.8027	103.508	-33.3997	-16.566	102.138	-6.92164	6.38177	140.023	-25.062	-27.3261	114.208	-38.6231	-10.1425	112.596	-10.0758	8.52058	167.921	-25.453	-18.492	168.85	-45.1929	-32.0307	171.814	-66.4884	-42.4635	158.922	16.9962	1.98704	153.502	28.2166	31.0664	132.198	40.7804	8.77564	
225	1.875	95.0112	34.1148	14.5019	79.7393	18.5211	-4.19969	75.122	7.43481	-29.7492	73.1544	-5.18708	-49.7147	108.095	-2.22436	-45.0541	85.0657	-20.043	-32.4315	95.3588	-4.15494	-4.71699	118.227	-17.6691	-36.6415	95.119	-28.7368	-18.3878	99.2193	-5.07974	6.45873	131.837	-30.761	-28.0393	108.156	-36.0369	-12.927	110.82	-12.9289	12.3758	161.747	-29.7329	-21.1654	161.725	-54.1162	-27.2373	151.696	-77.9521	-42.0888	154.306	14.2717	0.742086	155.683	24.6971	31.359	132.324	41.2066	8.81673	
226	1.88333	97.9224	36.8793	18.7642	78.9393	23.1467	-7.65402	71.7922	13.899	-27.9476	68.7682	1.474	-51.2667	103.226	4.02307	-43.8814	84.2279	-17.9861	-30.851	92.8652	-1.94294	-3.88727	114.011	-19.5305	-35.0004	89.3116	-24.961	-16.6437	99.3008	-0.748561	7.57502	123.809	-29.7082	-27.8862	103.022	-35.608	-10.7738	105.139	-10.2201	10.6192	155.008	-31.5545	-17.0943	147.319	-54.9278	-29.5754	131.396	-76.2819	-37.8426	157.779	10.7877	0.766923	153.089	25.8307	31.6707	132.357	39.249	7.3843	
227	1.89167	100.82	41.0746	17.9581	78.409	30.9094	-5.41217	73.2606	18.992	-29.2739	68.9988	9.02586	-46.6913	100.344	1.62954	-44.5103	78.183	-10.5468	-27.6108	91.0602	5.58567	-4.1653	109.379	-16.871	-35.5917	84.2262	-20.5215	-17.2109	95.8501	2.29792	7.71611	116.821	-28.0243	-27.1923	93.6894	-29.6533	-9.59478	104.185	-4.60983	14.5356	145.539	-35.6876	-19.9554	130.039	-57.6264	-30.5413	106.012	-71.6796	-31.7473	154.61	8.13018	1.29648	154.677	23.6189	31.6207	137.76	38.2948	9.64229	
228	1.9	101.168	48.2563	11.6112	80.5874	40.4528	-5.74561	74.2834	27.7051	-30.3041	66.8952	17.1486	-50.5009	99.449	8.47465	-43.8551	74.3229	-3.18864	-32.6588	87.6657	15.4935	-3.566	107.135	-11.1344	-35.4423	79.6842	-14.6486	-18.9482	91.0893	9.89682	6.85028	112.485	-21.7707	-27.3117	86.9921	-24.4264	-6.27978	99.4892	0.793511	14.2367	136.845	-37.7489	-18.4218	119.485	-53.0073	-30.5043	88.7652	-60.0837	-35.6288	152.558	7.48	2.3145	154.399	20.5503	29.3237	137.898	39.9564	3.39152	
229	1.90833	106.171	53.8107	13.4244	84.7818	48.1686	-4.73432	74.1547	40.0051	-30.7685	65.9612	30.0651	-48.3816	97.0814	15.764	-46.4666	70.5393	7.71721	-33.7832	89.0076	20.5249	-3.55238	100.665	-0.764588	-38.5832	72.9938	-3.75917	-17.095	90.5262	17.2544	5.86495	101.111	-17.7881	-30.1491	78.8434	-14.2897	-8.34008	92.076	3.1577	13.7413	124.831	-36.8423	-24.377	102.405	-44.8604	-36.1166	74.2093	-49.8072	-37.2354	148.749	1.03673	-1.19074	153.851	17.9612	30.3497	141.368	39.6883	4.05384	
230	1.91667	112.687	54.1409	11.9589	89.5891	53.8804	-8.23375	77.5202	49.7853	-30.2243	69.3756	38.9042	-52.4188	96.2485	25.6508	-47.4589	70.0157	19.6202	-35.3708	83.4597	30.1316	-5.89365	97.4044	3.21999	-38.4996	68.6623	9.84974	-19.7882	85.6421	24.7142	4.91569	97.7957	-8.86934	-30.6443	73.5211	-3.95758	-9.26339	92.0874	14.0358	11.7502	115.02	-30.3401	-26.6768	92.7082	-39.7283	-37.7904	69.016	-40.3841	-41.598	145.796	0.478109	2.58	153.043	11.7636	31.3386	142.181	39.1708	5.81189	
231	1.925	118.336	64.2698	13.5387	96.4308	67.3722	-9.13301	84.4141	66.5143	-31.2965	75.4074	55.2843	-52.0229	97.1906	37.8224	-47.1827	68.9973	39.1217	-30.9081	88.5519	40.0542	-3.58116	93.0235	12.9096	-37.3037	68.0039	23.7092	-18.0419	88.0901	32.1939	7.65916	92.203	0.967994	-30.5761	69.5532	8.78663	-13.3851	87.815	19.2534	12.8571	108.419	-26.5304	-23.6175	83.3159	-31.0347	-38.6404	60.1684	-26.552	-47.8832	141.094	2.70457	1.17873	149.993	10.1014	27.8489	145.243	35.5345	5.06329	
232	1.93333	125.001	64.0385	17.4678	103.995	71.4793	-4.78395	92.2741	71.9572	-33.0011	80.8174	68.2562	-53.0386	96.1945	43.1473	-46.4101	72.5625	48.3467	-29.3478	90.3101	48.1932	-2.60768	88.2951	22.6253	-37.2174	68.1108	34.198	-18.9192	95.7087	40.3431	10.2555	85.4604	6.07943	-30.3399	68.2704	23.2608	-10.009	89.9658	30.8253	12.5065	101.024	-17.5825	-26.5705	77.9562	-20.0408	-41.8511	57.4163	-16.4385	-49.7192	135.576	0.526106	-0.877144	146.91	8.11444	32.6913	147.541	39.5664	7.00733	
233	1.94167	129.461	65.713	18.1114	111.299	77.9779	-5.19854	99.9661	78.4532	-32.6869	89.3932	79.0632	-50.8373	102.108	50.4239	-43.7373	75.1687	58.5828	-26.9736	92.6242	54.6086	-2.63755	92.3891	33.3562	-38.7541	71.1187	45.9901	-18.1566	97.9969	48.7603	9.78109	85.8635	14.8454	-31.1493	66.3453	28.1119	-11.8695	89.9251	34.9328	14.3967	95.913	-11.7165	-24.3265	73.1022	-13.4115	-43.0071	54.1271	-12.9663	-54.1602	134.479	2.34526	2.77195	144.477	8.17886	27.5753	147.484	34.1928	8.2916	
234	1.95	132.573	65.9852	20.4473	116.282	77.1865	-5.05977	106.283	82.5764	-31.3258	96.7135	79.4491	-50.7571	100.72	53.0596	-44.0888	78.9487	62.5856	-26.1882	100.128	60.8021	-0.440543	93.8504	35.2561	-36.627	73.341	51.9494	-18.4468	100.491	50.4454	10.011	86.7834	20.9097	-31.9509	66.6486	35.7243	-13.216	93.1308	41.5038	13.312	90.5032	-8.79746	-25.9277	75.6749	-4.96833	-41.53	57.8122	-5.72818	-57.784	132.316	2.85583	0.412313	141.849	7.11928	28.7319	147.072	33.0665	8.32633	
235	1.95833	136.38	65.0877	17.6872	122.38	79.8504	-2.08975	113.383	85.5355	-30.7352	104.126	86.4137	-50.113	107.733	58.2232	-41.8526	84.6354	70.6358	-25.6482	99.5729	58.7079	-0.810227	95.7451	39.7457	-36.7876	77.0005	56.4781	-14.5612	99.6335	52.4135	10.2782	88.6361	22.2266	-30.2928	68.3015	39.2027	-13.4081	90.9775	42.2465	12.5256	92.0901	-2.07432	-25.8769	70.2825	-3.70561	-42.5859	56.8917	-4.2282	-56.8534	132.677	5.74377	1.74864	140.306	6.31416	29.8865	149.627	31.5978	8.31143	
236	1.96667	140.623	64.3754	19.5009	127.999	80.4077	0.486371	118.794	83.1257	-28.7746	108.83	82.9023	-51.1041	110.972	55.8695	-41.7619	89.9221	73.066	-27.6169	107.207	64.4415	0.993323	98.1131	40.7686	-36.2051	80.3283	59.6811	-18.4841	104.548	51.2353	11.8384	86.566	25.914	-31.1747	70.3177	43.2946	-13.5243	93.0051	45.0277	11.0282	89.6808	0.315458	-29.6578	73.4829	3.33846	-42.5341	57.2777	1.76812	-62.6315	127.111	1.17467	2.74053	138.235	5.68192	34.2516	148.771	29.4958	9.31353	
237	1.975	143.542	63.5749	19.5994	132.509	81.2962	-2.12843	124.079	83.8121	-28.3493	113.192	82.6377	-49.4063	115.061	55.0602	-41.9997	91.3793	69.3287	-29.6668	108.64	59.6692	1.80389	98.0026	42.1436	-37.9272	81.8688	59.7772	-16.4629	105.474	52.8599	11.6808	87.5703	28.5959	-32.9857	74.9766	46.6205	-15.623	94.6698	43.6194	11.6748	89.3139	0.70247	-28.5112	71.244	2.03166	-43.321	58.0647	4.79262	-61.3811	130.81	2.66806	0.790139	139.221	4.56063	31.3859	152.184	27.3628	11.771	
